<svg xmlns="http://www.w3.org/2000/svg" viewBox="0 0 512 512">
  <rect width="512" height="512" rx="80" fill="#1A2744"/>
  <!-- Mặt trời -->
  <circle cx="256" cy="180" r="70" fill="#FF6B00"/>
  <!-- Tia nắng -->
  <g stroke="#FF6B00" stroke-width="18" stroke-linecap="round">
    <line x1="256" y1="68" x2="256" y2="40"/>
    <line x1="348" y1="88" x2="366" y2="70"/>
    <line x1="388" y1="180" x2="416" y2="180"/>
    <line x1="348" y1="272" x2="366" y2="290"/>
    <line x1="164" y1="88" x2="146" y2="70"/>
    <line x1="124" y1="180" x2="96" y2="180"/>
    <line x1="164" y1="272" x2="146" y2="290"/>
  </g>
  <!-- Tấm pin solar (panel) -->
  <rect x="80" y="300" width="352" height="140" rx="12" fill="#0E7C6B"/>
  <!-- Đường chia panel -->
  <g stroke="#1A2744" stroke-width="4" opacity="0.6">
    <line x1="197" y1="300" x2="197" y2="440"/>
    <line x1="314" y1="300" x2="314" y2="440"/>
    <line x1="80" y1="370" x2="432" y2="370"/>
  </g>
  <!-- Phản sáng panel -->
  <rect x="88" y="308" width="100" height="54" rx="6" fill="white" opacity="0.08"/>
  <rect x="205" y="308" width="100" height="54" rx="6" fill="white" opacity="0.08"/>
  <rect x="322" y="308" width="100" height="54" rx="6" fill="white" opacity="0.08"/>
</svg>
